<mxfile host="65bd71144e">
    <diagram id="0xoyhoB9InXKQoQoNSjv" name="Page-1">
        <mxGraphModel dx="2159" dy="1862" grid="1" gridSize="10" guides="1" tooltips="1" connect="1" arrows="1" fold="1" page="1" pageScale="1" pageWidth="850" pageHeight="1100" background="#FFFFFF" math="0" shadow="0">
            <root>
                <mxCell id="0"/>
                <mxCell id="1" parent="0"/>
                <mxCell id="93" style="edgeStyle=orthogonalEdgeStyle;shape=connector;rounded=1;html=1;exitX=1;exitY=0.75;exitDx=0;exitDy=0;entryX=0.5;entryY=0;entryDx=0;entryDy=0;labelBackgroundColor=default;fontFamily=Helvetica;fontSize=12;fontColor=#2A2A2A;startArrow=oval;startFill=1;endArrow=oval;endFill=1;strokeColor=#2A2A2A;strokeWidth=8;" edge="1" parent="1" source="85" target="88">
                    <mxGeometry relative="1" as="geometry">
                        <Array as="points">
                            <mxPoint x="-120" y="710"/>
                            <mxPoint x="-120" y="730"/>
                            <mxPoint x="187" y="730"/>
                        </Array>
                    </mxGeometry>
                </mxCell>
                <mxCell id="85" value="&lt;div style=&quot;font-family: &amp;#34;consolas&amp;#34; , &amp;#34;courier new&amp;#34; , monospace ; line-height: 1.28&quot;&gt;To answer this:&amp;nbsp;&lt;/div&gt;&lt;div style=&quot;font-family: &amp;#34;consolas&amp;#34; , &amp;#34;courier new&amp;#34; , monospace ; line-height: 1.28&quot;&gt;- Study the background of the 3 pillars of this study: GEO, WEB and VPL.&lt;/div&gt;&lt;div style=&quot;font-family: &amp;#34;consolas&amp;#34; , &amp;#34;courier new&amp;#34; , monospace ; line-height: 1.28&quot;&gt;&lt;div style=&quot;line-height: 1.28&quot;&gt;&amp;nbsp; - GEO: geodata computation&amp;nbsp;&lt;/div&gt;&lt;div style=&quot;line-height: 1.28&quot;&gt;&amp;nbsp; - WEB: client-side web applications&lt;/div&gt;&lt;div style=&quot;line-height: 1.28&quot;&gt;&amp;nbsp; - VPL: visual programming languages&lt;/div&gt;&lt;/div&gt;&lt;div style=&quot;font-family: &amp;#34;consolas&amp;#34; , &amp;#34;courier new&amp;#34; , monospace ; line-height: 1.28&quot;&gt;&lt;br&gt;&lt;/div&gt;&lt;div style=&quot;font-family: &amp;#34;consolas&amp;#34; , &amp;#34;courier new&amp;#34; , monospace ; line-height: 1.28&quot;&gt;- Study related works in the duo-combinatory fields: GEO + WEB, GEO + VPL, and WEB + VPL&amp;nbsp;&lt;/div&gt;&lt;div style=&quot;font-family: &amp;#34;consolas&amp;#34; , &amp;#34;courier new&amp;#34; , monospace ; line-height: 1.28&quot;&gt;&amp;nbsp; - Find gaps and potential pitfalls&amp;nbsp;&lt;/div&gt;" style="whiteSpace=wrap;html=1;rounded=1;align=left;labelBorderColor=none;spacingLeft=0;spacingBottom=0;spacingRight=0;spacing=10;spacingTop=0;fontColor=#0A304D;labelBackgroundColor=none;fillColor=#FFFFFF;strokeWidth=4;strokeColor=#2A2A2A;verticalAlign=top;" vertex="1" parent="1">
                    <mxGeometry x="-510" y="560" width="370" height="200" as="geometry"/>
                </mxCell>
                <mxCell id="22" value="&lt;div style=&quot;font-family: consolas, &amp;quot;courier new&amp;quot;, monospace; line-height: 1.28;&quot;&gt;&lt;div&gt;&lt;b&gt;Geocomputation&lt;/b&gt;&lt;br&gt;L is important&lt;/div&gt;&lt;div&gt;L is difficult&lt;/div&gt;&lt;/div&gt;" style="whiteSpace=wrap;html=1;rounded=1;align=left;labelBorderColor=none;spacingLeft=0;spacingBottom=0;spacingRight=0;spacing=10;spacingTop=0;fontColor=#FFFFFF;labelBackgroundColor=none;" parent="1" vertex="1">
                    <mxGeometry x="37" y="-130" width="310" height="80" as="geometry"/>
                </mxCell>
                <mxCell id="37" style="edgeStyle=orthogonalEdgeStyle;html=1;exitX=0.5;exitY=0;exitDx=0;exitDy=0;entryX=0.5;entryY=1;entryDx=0;entryDy=0;fontFamily=Helvetica;fontSize=12;fontColor=#FFFFFF;strokeColor=#2A2A2A;endArrow=oval;endFill=1;startArrow=oval;startFill=1;strokeWidth=8;" parent="1" source="27" target="22" edge="1">
                    <mxGeometry relative="1" as="geometry"/>
                </mxCell>
                <mxCell id="43" style="edgeStyle=orthogonalEdgeStyle;html=1;exitX=0.5;exitY=1;exitDx=0;exitDy=0;fontFamily=Helvetica;fontSize=12;fontColor=#2A2A2A;startArrow=none;startFill=1;endArrow=oval;endFill=1;strokeColor=#2A2A2A;strokeWidth=8;" parent="1" source="46" edge="1">
                    <mxGeometry relative="1" as="geometry">
                        <mxPoint x="192" y="210" as="targetPoint"/>
                        <Array as="points">
                            <mxPoint x="192" y="150"/>
                        </Array>
                    </mxGeometry>
                </mxCell>
                <mxCell id="27" value="&lt;div style=&quot;font-family: &amp;#34;consolas&amp;#34; , &amp;#34;courier new&amp;#34; , monospace ; line-height: 1.28&quot;&gt;1. Gecomputation inside of&lt;b&gt; Web Applications&lt;/b&gt;&lt;/div&gt;" style="whiteSpace=wrap;html=1;rounded=1;align=left;labelBorderColor=none;spacingLeft=0;spacingBottom=0;spacingRight=0;spacing=10;spacingTop=0;fontColor=#FFFFFF;labelBackgroundColor=none;" parent="1" vertex="1">
                    <mxGeometry x="37" y="30" width="150" height="84.14" as="geometry"/>
                </mxCell>
                <mxCell id="36" style="edgeStyle=orthogonalEdgeStyle;html=1;exitX=0.5;exitY=0;exitDx=0;exitDy=0;entryX=0.5;entryY=1;entryDx=0;entryDy=0;fontFamily=Helvetica;fontSize=12;fontColor=#FFFFFF;strokeColor=#2A2A2A;endArrow=oval;endFill=1;startArrow=oval;startFill=1;strokeWidth=8;" parent="1" source="28" target="22" edge="1">
                    <mxGeometry relative="1" as="geometry">
                        <Array as="points">
                            <mxPoint x="272" y="-10"/>
                            <mxPoint x="192" y="-10"/>
                        </Array>
                    </mxGeometry>
                </mxCell>
                <mxCell id="42" style="edgeStyle=orthogonalEdgeStyle;html=1;exitX=0.5;exitY=1;exitDx=0;exitDy=0;fontFamily=Helvetica;fontSize=12;fontColor=#2A2A2A;startArrow=oval;startFill=1;endArrow=oval;endFill=1;strokeColor=#2A2A2A;strokeWidth=8;entryX=0.5;entryY=0;entryDx=0;entryDy=0;" parent="1" source="28" target="40" edge="1">
                    <mxGeometry relative="1" as="geometry">
                        <mxPoint x="197" y="200" as="targetPoint"/>
                        <Array as="points">
                            <mxPoint x="272" y="150"/>
                            <mxPoint x="192" y="150"/>
                        </Array>
                    </mxGeometry>
                </mxCell>
                <mxCell id="28" value="&lt;div style=&quot;font-family: &amp;#34;consolas&amp;#34; , &amp;#34;courier new&amp;#34; , monospace ; line-height: 1.28&quot;&gt;2. Gecomputation using V&lt;b&gt;isual Programming&lt;/b&gt;&lt;/div&gt;" style="whiteSpace=wrap;html=1;rounded=1;align=left;labelBorderColor=none;spacingLeft=0;spacingBottom=0;spacingRight=0;spacing=10;spacingTop=0;fontColor=#FFFFFF;labelBackgroundColor=none;" parent="1" vertex="1">
                    <mxGeometry x="197" y="30" width="150" height="84.14" as="geometry"/>
                </mxCell>
                <mxCell id="81" style="edgeStyle=orthogonalEdgeStyle;shape=connector;rounded=1;html=1;exitX=0.5;exitY=1;exitDx=0;exitDy=0;entryX=0.5;entryY=0;entryDx=0;entryDy=0;labelBackgroundColor=default;fontFamily=Helvetica;fontSize=12;fontColor=#2A2A2A;startArrow=oval;startFill=1;endArrow=oval;endFill=1;strokeColor=#2A2A2A;strokeWidth=8;" edge="1" parent="1" source="40" target="78">
                    <mxGeometry relative="1" as="geometry"/>
                </mxCell>
                <mxCell id="40" value="&lt;div style=&quot;font-family: &amp;#34;consolas&amp;#34; , &amp;#34;courier new&amp;#34; , monospace ; line-height: 1.28&quot;&gt;GOAL: This study seeks to combine both approaches.&lt;br&gt;Doing so will:&lt;/div&gt;&lt;div style=&quot;font-family: &amp;#34;consolas&amp;#34; , &amp;#34;courier new&amp;#34; , monospace ; line-height: 1.28&quot;&gt;- Aid these individual approaches.&lt;br&gt;- Open up a 'new format' of geocomputation.&lt;/div&gt;" style="whiteSpace=wrap;html=1;rounded=1;align=left;labelBorderColor=none;spacingLeft=0;spacingBottom=0;spacingRight=0;spacing=10;spacingTop=0;fontColor=#FFFFFF;labelBackgroundColor=none;" parent="1" vertex="1">
                    <mxGeometry x="37" y="200" width="310" height="121" as="geometry"/>
                </mxCell>
                <mxCell id="44" value="&lt;div style=&quot;font-family: &amp;#34;consolas&amp;#34; , &amp;#34;courier new&amp;#34; , monospace ; line-height: 1.28&quot;&gt;Two ways have been tried to improve the process:&amp;nbsp;&lt;/div&gt;" style="whiteSpace=wrap;html=1;rounded=1;align=left;labelBorderColor=none;spacingLeft=0;spacingBottom=0;spacingRight=0;spacing=10;spacingTop=0;fontColor=#0A304D;labelBackgroundColor=none;fillColor=#FFFFFF;strokeWidth=4;strokeColor=#2A2A2A;" parent="1" vertex="1">
                    <mxGeometry x="77" y="-30" width="230" height="40" as="geometry"/>
                </mxCell>
                <mxCell id="46" value="&lt;div style=&quot;font-family: &amp;#34;consolas&amp;#34; , &amp;#34;courier new&amp;#34; , monospace ; line-height: 1.28&quot;&gt;&lt;span&gt;Both of these appoaches contain 'open ended' questions, and have never been combined.&lt;/span&gt;&lt;/div&gt;" style="whiteSpace=wrap;html=1;rounded=1;align=left;labelBorderColor=none;spacingLeft=0;spacingBottom=0;spacingRight=0;spacing=10;spacingTop=0;fontColor=#0A304D;labelBackgroundColor=none;fillColor=#FFFFFF;strokeWidth=4;strokeColor=#2A2A2A;" parent="1" vertex="1">
                    <mxGeometry x="47" y="130" width="290" height="50" as="geometry"/>
                </mxCell>
                <mxCell id="47" value="" style="edgeStyle=orthogonalEdgeStyle;html=1;exitX=0.5;exitY=1;exitDx=0;exitDy=0;fontFamily=Helvetica;fontSize=12;fontColor=#2A2A2A;startArrow=oval;startFill=1;endArrow=none;endFill=1;strokeColor=#2A2A2A;strokeWidth=8;" parent="1" source="27" target="46" edge="1">
                    <mxGeometry relative="1" as="geometry">
                        <mxPoint x="112" y="114.13999999999999" as="sourcePoint"/>
                        <mxPoint x="192" y="210" as="targetPoint"/>
                        <Array as="points">
                            <mxPoint x="112" y="150"/>
                        </Array>
                    </mxGeometry>
                </mxCell>
                <mxCell id="49" value="&lt;div style=&quot;font-family: &amp;#34;consolas&amp;#34; , &amp;#34;courier new&amp;#34; , monospace ; line-height: 1.28&quot;&gt;&lt;span&gt;Preliminary work signals four key challenges&amp;nbsp;&lt;/span&gt;&lt;/div&gt;" style="whiteSpace=wrap;html=1;rounded=1;align=left;labelBorderColor=none;spacingLeft=0;spacingBottom=0;spacingRight=0;spacing=10;spacingTop=0;fontColor=#0A304D;labelBackgroundColor=none;fillColor=#FFFFFF;strokeWidth=4;strokeColor=#2A2A2A;" parent="1" vertex="1">
                    <mxGeometry x="44.5" y="1020" width="290" height="50" as="geometry"/>
                </mxCell>
                <mxCell id="50" value="&lt;div style=&quot;font-family: &amp;#34;consolas&amp;#34; , &amp;#34;courier new&amp;#34; , monospace ; line-height: 1.28&quot;&gt;&lt;font style=&quot;font-size: 24px&quot;&gt;1. INTRODUCTION&lt;/font&gt;&lt;/div&gt;" style="whiteSpace=wrap;html=1;rounded=1;align=left;labelBorderColor=none;spacingLeft=0;spacingBottom=0;spacingRight=0;spacing=10;spacingTop=0;fontColor=#0A304D;labelBackgroundColor=none;fillColor=none;strokeWidth=4;strokeColor=none;rotation=90;fontSize=18;" parent="1" vertex="1">
                    <mxGeometry x="237" y="64.13999999999999" width="290" height="50" as="geometry"/>
                </mxCell>
                <mxCell id="51" value="&lt;div style=&quot;font-family: &amp;#34;consolas&amp;#34; , &amp;#34;courier new&amp;#34; , monospace ; line-height: 1.28&quot;&gt;GEO:&lt;/div&gt;&lt;div style=&quot;font-family: &amp;#34;consolas&amp;#34; , &amp;#34;courier new&amp;#34; , monospace ; line-height: 1.28&quot;&gt;Geocomputation has&amp;nbsp;&lt;/div&gt;" style="whiteSpace=wrap;html=1;rounded=1;align=left;labelBorderColor=none;spacingLeft=0;spacingBottom=0;spacingRight=0;spacing=10;spacingTop=0;fontColor=#FFFFFF;labelBackgroundColor=none;verticalAlign=top;" parent="1" vertex="1">
                    <mxGeometry x="-90.5" y="560" width="176" height="150.58823529411765" as="geometry"/>
                </mxCell>
                <mxCell id="52" value="&lt;div style=&quot;font-family: &amp;#34;consolas&amp;#34; , &amp;#34;courier new&amp;#34; , monospace ; line-height: 1.28&quot;&gt;WEB:&lt;/div&gt;" style="whiteSpace=wrap;html=1;rounded=1;align=left;labelBorderColor=none;spacingLeft=0;spacingBottom=0;spacingRight=0;spacing=10;spacingTop=0;fontColor=#FFFFFF;labelBackgroundColor=none;verticalAlign=top;" parent="1" vertex="1">
                    <mxGeometry x="101.5" y="560" width="176" height="150.58823529411765" as="geometry"/>
                </mxCell>
                <mxCell id="53" value="&lt;div style=&quot;font-family: &amp;#34;consolas&amp;#34; , &amp;#34;courier new&amp;#34; , monospace ; line-height: 1.28&quot;&gt;VPL:&lt;/div&gt;&lt;div style=&quot;font-family: &amp;#34;consolas&amp;#34; , &amp;#34;courier new&amp;#34; , monospace ; line-height: 1.28&quot;&gt;&lt;br&gt;&lt;/div&gt;" style="whiteSpace=wrap;html=1;rounded=1;align=left;labelBorderColor=none;spacingLeft=0;spacingBottom=0;spacingRight=0;spacing=10;spacingTop=0;fontColor=#FFFFFF;labelBackgroundColor=none;verticalAlign=top;" parent="1" vertex="1">
                    <mxGeometry x="293.5" y="560" width="176" height="150.58823529411765" as="geometry"/>
                </mxCell>
                <mxCell id="99" style="edgeStyle=orthogonalEdgeStyle;shape=connector;rounded=1;html=1;exitX=0.5;exitY=1;exitDx=0;exitDy=0;entryX=0.25;entryY=0;entryDx=0;entryDy=0;labelBackgroundColor=default;fontFamily=Helvetica;fontSize=12;fontColor=#2A2A2A;startArrow=oval;startFill=1;endArrow=oval;endFill=1;strokeColor=#2A2A2A;strokeWidth=8;" edge="1" parent="1" source="54" target="49">
                    <mxGeometry relative="1" as="geometry"/>
                </mxCell>
                <mxCell id="54" value="&lt;div style=&quot;font-family: &amp;#34;consolas&amp;#34; , &amp;#34;courier new&amp;#34; , monospace ; line-height: 1.28&quot;&gt;GEO + WEB:&amp;nbsp;&lt;/div&gt;&lt;div style=&quot;font-family: &amp;#34;consolas&amp;#34; , &amp;#34;courier new&amp;#34; , monospace ; line-height: 1.28&quot;&gt;browser based geoprocessing:&amp;nbsp;&lt;/div&gt;&lt;div style=&quot;font-family: &amp;#34;consolas&amp;#34; , &amp;#34;courier new&amp;#34; , monospace ; line-height: 1.28&quot;&gt;availability &amp;amp; performance of libraries primary concern&lt;/div&gt;&lt;div style=&quot;font-family: &amp;#34;consolas&amp;#34; , &amp;#34;courier new&amp;#34; , monospace ; line-height: 1.28&quot;&gt;Interface secondary concern.&lt;/div&gt;" style="whiteSpace=wrap;html=1;rounded=1;align=left;labelBorderColor=none;spacingLeft=0;spacingBottom=0;spacingRight=0;spacing=10;spacingTop=0;fontColor=#FFFFFF;labelBackgroundColor=none;verticalAlign=top;" parent="1" vertex="1">
                    <mxGeometry x="-90.5" y="810" width="176" height="180" as="geometry"/>
                </mxCell>
                <mxCell id="97" style="edgeStyle=orthogonalEdgeStyle;shape=connector;rounded=1;html=1;exitX=0.5;exitY=1;exitDx=0;exitDy=0;entryX=0.75;entryY=0;entryDx=0;entryDy=0;labelBackgroundColor=default;fontFamily=Helvetica;fontSize=12;fontColor=#2A2A2A;startArrow=oval;startFill=1;endArrow=oval;endFill=1;strokeColor=#2A2A2A;strokeWidth=8;" edge="1" parent="1" source="55" target="49">
                    <mxGeometry relative="1" as="geometry"/>
                </mxCell>
                <mxCell id="55" value="&lt;div style=&quot;font-family: &amp;#34;consolas&amp;#34; , &amp;#34;courier new&amp;#34; , monospace ; line-height: 1.28&quot;&gt;WEB + VPL:&lt;/div&gt;&lt;div style=&quot;font-family: &amp;#34;consolas&amp;#34; , &amp;#34;courier new&amp;#34; , monospace ; line-height: 1.28&quot;&gt;These types of applications only exist as educational tools.&lt;/div&gt;&lt;div style=&quot;font-family: &amp;#34;consolas&amp;#34; , &amp;#34;courier new&amp;#34; , monospace ; line-height: 1.28&quot;&gt;Very little presedence of tools for profesional use.&amp;nbsp;&lt;/div&gt;" style="whiteSpace=wrap;html=1;rounded=1;align=left;labelBorderColor=none;spacingLeft=0;spacingBottom=0;spacingRight=0;spacing=10;spacingTop=0;fontColor=#FFFFFF;labelBackgroundColor=none;verticalAlign=top;" parent="1" vertex="1">
                    <mxGeometry x="293.5" y="810" width="176" height="180" as="geometry"/>
                </mxCell>
                <mxCell id="98" style="edgeStyle=orthogonalEdgeStyle;shape=connector;rounded=1;html=1;exitX=0.5;exitY=1;exitDx=0;exitDy=0;entryX=0.5;entryY=0;entryDx=0;entryDy=0;labelBackgroundColor=default;fontFamily=Helvetica;fontSize=12;fontColor=#2A2A2A;startArrow=oval;startFill=1;endArrow=oval;endFill=1;strokeColor=#2A2A2A;strokeWidth=8;" edge="1" parent="1" source="56" target="49">
                    <mxGeometry relative="1" as="geometry"/>
                </mxCell>
                <mxCell id="56" value="&lt;div style=&quot;font-family: &amp;#34;consolas&amp;#34; , &amp;#34;courier new&amp;#34; , monospace ; line-height: 1.28&quot;&gt;GEO + VPL:&lt;/div&gt;&lt;div style=&quot;font-family: &amp;#34;consolas&amp;#34; , &amp;#34;courier new&amp;#34; , monospace ; line-height: 1.28&quot;&gt;Many examples.&lt;/div&gt;&lt;div style=&quot;font-family: &amp;#34;consolas&amp;#34; , &amp;#34;courier new&amp;#34; , monospace ; line-height: 1.28&quot;&gt;Operationalizeing VPL's is a general challenge&lt;/div&gt;&lt;div style=&quot;font-family: &amp;#34;consolas&amp;#34; , &amp;#34;courier new&amp;#34; , monospace ; line-height: 1.28&quot;&gt;&lt;br&gt;&lt;/div&gt;" style="whiteSpace=wrap;html=1;rounded=1;align=left;labelBorderColor=none;spacingLeft=0;spacingBottom=0;spacingRight=0;spacing=10;spacingTop=0;fontColor=#FFFFFF;labelBackgroundColor=none;verticalAlign=top;" parent="1" vertex="1">
                    <mxGeometry x="101.5" y="810" width="176" height="180" as="geometry"/>
                </mxCell>
                <mxCell id="58" value="&lt;div style=&quot;font-family: &amp;#34;consolas&amp;#34; , &amp;#34;courier new&amp;#34; , monospace ; line-height: 1.28&quot;&gt;&lt;font style=&quot;font-size: 24px&quot;&gt;2. BACKGROUND&lt;/font&gt;&lt;/div&gt;" style="whiteSpace=wrap;html=1;rounded=1;align=left;labelBorderColor=none;spacingLeft=0;spacingBottom=0;spacingRight=0;spacing=10;spacingTop=0;fontColor=#0A304D;labelBackgroundColor=none;fillColor=none;strokeWidth=4;strokeColor=none;rotation=90;fontSize=18;" parent="1" vertex="1">
                    <mxGeometry x="410" y="687" width="290" height="50" as="geometry"/>
                </mxCell>
                <mxCell id="62" value="&lt;div style=&quot;font-family: &amp;#34;consolas&amp;#34; , &amp;#34;courier new&amp;#34; , monospace ; line-height: 1.28&quot;&gt;3.2 Challenge: Compilation&lt;/div&gt;&lt;div style=&quot;font-family: &amp;#34;consolas&amp;#34; , &amp;#34;courier new&amp;#34; , monospace ; line-height: 1.28&quot;&gt;&lt;br&gt;WHY:&amp;nbsp;&lt;br&gt;- GEOWEB: availability of industry standard libraries is key: pre-webassembly, all BBG attempts were deemed inadecuate.&lt;br&gt;&lt;/div&gt;" style="whiteSpace=wrap;html=1;rounded=1;align=left;labelBorderColor=none;spacingLeft=0;spacingBottom=0;spacingRight=0;spacing=10;spacingTop=0;fontColor=#0A304D;labelBackgroundColor=none;verticalAlign=top;fillColor=#FFFFFF;strokeColor=#2A2A2A;strokeWidth=4;" parent="1" vertex="1">
                    <mxGeometry x="2" y="1120" width="176" height="200" as="geometry"/>
                </mxCell>
                <mxCell id="63" value="&lt;div style=&quot;font-family: &amp;#34;consolas&amp;#34; , &amp;#34;courier new&amp;#34; , monospace ; line-height: 1.28&quot;&gt;3.3 Challenge: Loading&lt;br&gt;&lt;br&gt;WHY:&amp;nbsp;&lt;/div&gt;&lt;div style=&quot;font-family: &amp;#34;consolas&amp;#34; , &amp;#34;courier new&amp;#34; , monospace ; line-height: 1.28&quot;&gt;- GEOVPL: often need elaborate config / plugin setup. This combined with WEB leads to too many intermediate steps.&amp;nbsp;&lt;br&gt;&lt;br&gt;&lt;/div&gt;&lt;div style=&quot;font-family: &amp;#34;consolas&amp;#34; , &amp;#34;courier new&amp;#34; , monospace ; line-height: 1.28&quot;&gt;&lt;br&gt;&lt;/div&gt;" style="whiteSpace=wrap;html=1;rounded=1;align=left;labelBorderColor=none;spacingLeft=0;spacingBottom=0;spacingRight=0;spacing=10;spacingTop=0;fontColor=#0A304D;labelBackgroundColor=none;verticalAlign=top;fillColor=#FFFFFF;strokeColor=#2A2A2A;strokeWidth=4;" parent="1" vertex="1">
                    <mxGeometry x="194" y="1120" width="176" height="200" as="geometry"/>
                </mxCell>
                <mxCell id="64" value="&lt;div style=&quot;font-family: &amp;#34;consolas&amp;#34; , &amp;#34;courier new&amp;#34; , monospace ; line-height: 1.28&quot;&gt;3.4 Challenge: Usage&lt;br&gt;&lt;br&gt;WHY:&amp;nbsp;&lt;/div&gt;&lt;div style=&quot;font-family: &amp;#34;consolas&amp;#34; , &amp;#34;courier new&amp;#34; , monospace ; line-height: 1.28&quot;&gt;- VPL: vpl's are not by default more usable. This needs to be&amp;nbsp;&lt;/div&gt;" style="whiteSpace=wrap;html=1;rounded=1;align=left;labelBorderColor=none;spacingLeft=0;spacingBottom=0;spacingRight=0;spacing=10;spacingTop=0;fontColor=#0A304D;labelBackgroundColor=none;verticalAlign=top;fillColor=#FFFFFF;strokeColor=#2A2A2A;strokeWidth=4;" parent="1" vertex="1">
                    <mxGeometry x="386" y="1120" width="176" height="200" as="geometry"/>
                </mxCell>
                <mxCell id="65" value="&lt;div style=&quot;font-family: &amp;#34;consolas&amp;#34; , &amp;#34;courier new&amp;#34; , monospace ; line-height: 1.28&quot;&gt;&lt;font style=&quot;font-size: 24px&quot;&gt;3. METHODOLOGY&lt;/font&gt;&lt;/div&gt;" style="whiteSpace=wrap;html=1;rounded=1;align=left;labelBorderColor=none;spacingLeft=0;spacingBottom=0;spacingRight=0;spacing=10;spacingTop=0;fontColor=#0A304D;labelBackgroundColor=none;fillColor=none;strokeWidth=4;strokeColor=none;rotation=90;fontSize=18;" parent="1" vertex="1">
                    <mxGeometry x="520" y="1160" width="223" height="50" as="geometry"/>
                </mxCell>
                <mxCell id="66" value="&lt;div style=&quot;font-family: &amp;#34;consolas&amp;#34; , &amp;#34;courier new&amp;#34; , monospace ; line-height: 1.28&quot;&gt;3.1 Challenge:&lt;/div&gt;&lt;div style=&quot;font-family: &amp;#34;consolas&amp;#34; , &amp;#34;courier new&amp;#34; , monospace ; line-height: 1.28&quot;&gt;Interface &amp;amp; Visualization&lt;/div&gt;&lt;div style=&quot;font-family: &amp;#34;consolas&amp;#34; , &amp;#34;courier new&amp;#34; , monospace ; line-height: 1.28&quot;&gt;&lt;br&gt;&lt;/div&gt;&lt;div style=&quot;font-family: &amp;#34;consolas&amp;#34; , &amp;#34;courier new&amp;#34; , monospace ; line-height: 1.28&quot;&gt;WHY:&amp;nbsp;&lt;/div&gt;&lt;div style=&quot;font-family: &amp;#34;consolas&amp;#34; , &amp;#34;courier new&amp;#34; , monospace ; line-height: 1.28&quot;&gt;- WEBVPL: Little to no presedence on WEB VPL's in general&amp;nbsp;&lt;/div&gt;&lt;div style=&quot;font-family: &amp;#34;consolas&amp;#34; , &amp;#34;courier new&amp;#34; , monospace ; line-height: 1.28&quot;&gt;- GEOWEB: BBG interface is ongoing discussion&lt;/div&gt;" style="whiteSpace=wrap;html=1;rounded=1;align=left;labelBorderColor=none;spacingLeft=0;spacingBottom=0;spacingRight=0;spacing=10;spacingTop=0;fontColor=#0A304D;labelBackgroundColor=none;verticalAlign=top;fillColor=#FFFFFF;strokeColor=#2A2A2A;strokeWidth=4;" parent="1" vertex="1">
                    <mxGeometry x="-190" y="1120" width="176" height="200" as="geometry"/>
                </mxCell>
                <mxCell id="68" value="&lt;div style=&quot;font-family: &amp;#34;consolas&amp;#34; , &amp;#34;courier new&amp;#34; , monospace ; line-height: 1.28&quot;&gt;&lt;br&gt;&lt;/div&gt;" style="whiteSpace=wrap;html=1;rounded=1;align=left;labelBorderColor=none;spacingLeft=0;spacingBottom=0;spacingRight=0;spacing=10;spacingTop=0;fontColor=#FFFFFF;labelBackgroundColor=none;" parent="1" vertex="1">
                    <mxGeometry x="-190" y="1360" width="176" height="150.58823529411765" as="geometry"/>
                </mxCell>
                <mxCell id="69" value="&lt;div style=&quot;font-family: &amp;#34;consolas&amp;#34; , &amp;#34;courier new&amp;#34; , monospace ; line-height: 1.28&quot;&gt;&lt;br&gt;&lt;/div&gt;" style="whiteSpace=wrap;html=1;rounded=1;align=left;labelBorderColor=none;spacingLeft=0;spacingBottom=0;spacingRight=0;spacing=10;spacingTop=0;fontColor=#FFFFFF;labelBackgroundColor=none;" parent="1" vertex="1">
                    <mxGeometry x="2" y="1360" width="176" height="150.58823529411765" as="geometry"/>
                </mxCell>
                <mxCell id="70" value="&lt;div style=&quot;font-family: &amp;#34;consolas&amp;#34; , &amp;#34;courier new&amp;#34; , monospace ; line-height: 1.28&quot;&gt;&lt;br&gt;&lt;/div&gt;" style="whiteSpace=wrap;html=1;rounded=1;align=left;labelBorderColor=none;spacingLeft=0;spacingBottom=0;spacingRight=0;spacing=10;spacingTop=0;fontColor=#FFFFFF;labelBackgroundColor=none;" parent="1" vertex="1">
                    <mxGeometry x="194" y="1360" width="176" height="150.58823529411765" as="geometry"/>
                </mxCell>
                <mxCell id="71" value="&lt;div style=&quot;font-family: &amp;#34;consolas&amp;#34; , &amp;#34;courier new&amp;#34; , monospace ; line-height: 1.28&quot;&gt;&lt;br&gt;&lt;/div&gt;" style="whiteSpace=wrap;html=1;rounded=1;align=left;labelBorderColor=none;spacingLeft=0;spacingBottom=0;spacingRight=0;spacing=10;spacingTop=0;fontColor=#FFFFFF;labelBackgroundColor=none;" parent="1" vertex="1">
                    <mxGeometry x="386" y="1360" width="176" height="150.58823529411765" as="geometry"/>
                </mxCell>
                <mxCell id="73" value="&lt;div style=&quot;font-family: &amp;#34;consolas&amp;#34; , &amp;#34;courier new&amp;#34; , monospace ; line-height: 1.28&quot;&gt;&lt;font style=&quot;font-size: 24px&quot;&gt;4. IMPLEMENTATION&lt;/font&gt;&lt;/div&gt;" style="whiteSpace=wrap;html=1;rounded=1;align=left;labelBorderColor=none;spacingLeft=0;spacingBottom=0;spacingRight=0;spacing=10;spacingTop=0;fontColor=#0A304D;labelBackgroundColor=none;fillColor=none;strokeWidth=4;strokeColor=none;rotation=90;fontSize=18;" parent="1" vertex="1">
                    <mxGeometry x="567" y="1410.29" width="250" height="50" as="geometry"/>
                </mxCell>
                <mxCell id="74" value="&lt;div style=&quot;font-family: &amp;#34;consolas&amp;#34; , &amp;#34;courier new&amp;#34; , monospace ; line-height: 1.28&quot;&gt;&lt;font style=&quot;font-size: 24px&quot;&gt;5.EXPERIMENTS&lt;/font&gt;&lt;/div&gt;" style="whiteSpace=wrap;html=1;rounded=1;align=left;labelBorderColor=none;spacingLeft=0;spacingBottom=0;spacingRight=0;spacing=10;spacingTop=0;fontColor=#0A304D;labelBackgroundColor=none;fillColor=none;strokeWidth=4;strokeColor=none;rotation=90;fontSize=18;" parent="1" vertex="1">
                    <mxGeometry x="530" y="1410.29" width="250" height="50" as="geometry"/>
                </mxCell>
                <mxCell id="75" value="&lt;div style=&quot;font-family: &amp;#34;consolas&amp;#34; , &amp;#34;courier new&amp;#34; , monospace ; line-height: 1.28&quot;&gt;&lt;font style=&quot;font-size: 24px&quot;&gt;5.RESULTS&lt;/font&gt;&lt;/div&gt;" style="whiteSpace=wrap;html=1;rounded=1;align=left;labelBorderColor=none;spacingLeft=0;spacingBottom=0;spacingRight=0;spacing=10;spacingTop=0;fontColor=#0A304D;labelBackgroundColor=none;fillColor=none;strokeWidth=4;strokeColor=none;rotation=90;fontSize=18;" parent="1" vertex="1">
                    <mxGeometry x="493" y="1410.29" width="250" height="50" as="geometry"/>
                </mxCell>
                <mxCell id="86" style="edgeStyle=orthogonalEdgeStyle;shape=connector;rounded=1;html=1;exitX=0.5;exitY=1;exitDx=0;exitDy=0;entryX=0.5;entryY=0;entryDx=0;entryDy=0;labelBackgroundColor=default;fontFamily=Helvetica;fontSize=12;fontColor=#2A2A2A;startArrow=oval;startFill=1;endArrow=oval;endFill=1;strokeColor=#2A2A2A;strokeWidth=8;" edge="1" parent="1" source="78" target="85">
                    <mxGeometry relative="1" as="geometry">
                        <Array as="points">
                            <mxPoint x="192" y="450"/>
                            <mxPoint x="-325" y="450"/>
                        </Array>
                    </mxGeometry>
                </mxCell>
                <mxCell id="78" value="&lt;div style=&quot;font-family: &amp;#34;consolas&amp;#34; , &amp;#34;courier new&amp;#34; , monospace ; line-height: 1.28&quot;&gt;&lt;span style=&quot;font-style: italic ; background-color: rgb(30 , 30 , 30) ; color: rgb(212 , 212 , 212) ; font-family: &amp;#34;consolas&amp;#34; , &amp;#34;courier new&amp;#34; , monospace ; font-size: 14px&quot;&gt;Q: can a VPL be used to support and execute existing geo-computation libraries in a browser?&lt;/span&gt;&lt;/div&gt;" style="whiteSpace=wrap;html=1;rounded=1;align=left;labelBorderColor=none;spacingLeft=0;spacingBottom=0;spacingRight=0;spacing=10;spacingTop=0;fontColor=#FFFFFF;labelBackgroundColor=none;" vertex="1" parent="1">
                    <mxGeometry x="37" y="340" width="310" height="80" as="geometry"/>
                </mxCell>
                <mxCell id="89" style="edgeStyle=orthogonalEdgeStyle;shape=connector;rounded=1;html=1;exitX=0.25;exitY=1;exitDx=0;exitDy=0;labelBackgroundColor=default;fontFamily=Helvetica;fontSize=12;fontColor=#2A2A2A;startArrow=oval;startFill=1;endArrow=oval;endFill=1;strokeColor=#2A2A2A;strokeWidth=8;" edge="1" parent="1" source="87" target="51">
                    <mxGeometry relative="1" as="geometry"/>
                </mxCell>
                <mxCell id="90" style="edgeStyle=orthogonalEdgeStyle;shape=connector;rounded=1;html=1;exitX=0.5;exitY=1;exitDx=0;exitDy=0;entryX=0.5;entryY=0;entryDx=0;entryDy=0;labelBackgroundColor=default;fontFamily=Helvetica;fontSize=12;fontColor=#2A2A2A;startArrow=oval;startFill=1;endArrow=oval;endFill=1;strokeColor=#2A2A2A;strokeWidth=8;" edge="1" parent="1" source="87" target="52">
                    <mxGeometry relative="1" as="geometry"/>
                </mxCell>
                <mxCell id="91" style="edgeStyle=orthogonalEdgeStyle;shape=connector;rounded=1;html=1;exitX=0.75;exitY=1;exitDx=0;exitDy=0;labelBackgroundColor=default;fontFamily=Helvetica;fontSize=12;fontColor=#2A2A2A;startArrow=oval;startFill=1;endArrow=oval;endFill=1;strokeColor=#2A2A2A;strokeWidth=8;" edge="1" parent="1" source="87" target="53">
                    <mxGeometry relative="1" as="geometry"/>
                </mxCell>
                <mxCell id="92" style="edgeStyle=orthogonalEdgeStyle;shape=connector;rounded=1;html=1;exitX=0.5;exitY=0;exitDx=0;exitDy=0;entryX=1;entryY=0.25;entryDx=0;entryDy=0;labelBackgroundColor=default;fontFamily=Helvetica;fontSize=12;fontColor=#2A2A2A;startArrow=oval;startFill=1;endArrow=oval;endFill=1;strokeColor=#2A2A2A;strokeWidth=8;" edge="1" parent="1" source="87" target="85">
                    <mxGeometry relative="1" as="geometry">
                        <Array as="points">
                            <mxPoint x="190" y="490"/>
                            <mxPoint x="-120" y="490"/>
                            <mxPoint x="-120" y="610"/>
                        </Array>
                    </mxGeometry>
                </mxCell>
                <mxCell id="87" value="&lt;div style=&quot;font-family: &amp;#34;consolas&amp;#34; , &amp;#34;courier new&amp;#34; , monospace ; line-height: 1.28&quot;&gt;Background&lt;/div&gt;" style="whiteSpace=wrap;html=1;rounded=1;align=left;labelBorderColor=none;spacingLeft=0;spacingBottom=0;spacingRight=0;spacing=10;spacingTop=0;fontColor=#0A304D;labelBackgroundColor=none;fillColor=#FFFFFF;strokeWidth=4;strokeColor=#2A2A2A;verticalAlign=top;" vertex="1" parent="1">
                    <mxGeometry x="4.5" y="500" width="370" height="40" as="geometry"/>
                </mxCell>
                <mxCell id="94" style="edgeStyle=orthogonalEdgeStyle;shape=connector;rounded=1;html=1;exitX=0.25;exitY=1;exitDx=0;exitDy=0;entryX=0.5;entryY=0;entryDx=0;entryDy=0;labelBackgroundColor=default;fontFamily=Helvetica;fontSize=12;fontColor=#2A2A2A;startArrow=oval;startFill=1;endArrow=oval;endFill=1;strokeColor=#2A2A2A;strokeWidth=8;" edge="1" parent="1" source="88" target="54">
                    <mxGeometry relative="1" as="geometry"/>
                </mxCell>
                <mxCell id="95" style="edgeStyle=orthogonalEdgeStyle;shape=connector;rounded=1;html=1;exitX=0.5;exitY=1;exitDx=0;exitDy=0;labelBackgroundColor=default;fontFamily=Helvetica;fontSize=12;fontColor=#2A2A2A;startArrow=oval;startFill=1;endArrow=oval;endFill=1;strokeColor=#2A2A2A;strokeWidth=8;" edge="1" parent="1" source="88">
                    <mxGeometry relative="1" as="geometry">
                        <mxPoint x="186.66666666666697" y="810" as="targetPoint"/>
                    </mxGeometry>
                </mxCell>
                <mxCell id="96" style="edgeStyle=orthogonalEdgeStyle;shape=connector;rounded=1;html=1;exitX=0.75;exitY=1;exitDx=0;exitDy=0;labelBackgroundColor=default;fontFamily=Helvetica;fontSize=12;fontColor=#2A2A2A;startArrow=oval;startFill=1;endArrow=oval;endFill=1;strokeColor=#2A2A2A;strokeWidth=8;" edge="1" parent="1" source="88" target="55">
                    <mxGeometry relative="1" as="geometry"/>
                </mxCell>
                <mxCell id="88" value="&lt;div style=&quot;font-family: &amp;#34;consolas&amp;#34; , &amp;#34;courier new&amp;#34; , monospace ; line-height: 1.28&quot;&gt;Related Studies&lt;/div&gt;" style="whiteSpace=wrap;html=1;rounded=1;align=left;labelBorderColor=none;spacingLeft=0;spacingBottom=0;spacingRight=0;spacing=10;spacingTop=0;fontColor=#0A304D;labelBackgroundColor=none;fillColor=#FFFFFF;strokeWidth=4;strokeColor=#2A2A2A;verticalAlign=top;" vertex="1" parent="1">
                    <mxGeometry x="2" y="750" width="370" height="40" as="geometry"/>
                </mxCell>
            </root>
        </mxGraphModel>
    </diagram>
</mxfile>